<svg width="18" height="15" viewBox="0 0 18 15" fill="none" xmlns="http://www.w3.org/2000/svg">
<path d="M17.2675 2.37425C16.6442 2.64768 15.98 2.82892 15.2875 2.91692C15.9999 2.49158 16.5436 1.8232 16.7992 1.01758C16.135 1.41358 15.4017 1.6933 14.6202 1.84939C13.9895 1.17787 13.0907 0.761963 12.1101 0.761963C10.2076 0.761963 8.676 2.30615 8.676 4.1992C8.676 4.47158 8.69904 4.73349 8.75561 4.98282C5.89876 4.84349 3.37085 3.47425 1.67266 1.38844C1.37619 1.90282 1.20228 2.49158 1.20228 3.12539C1.20228 4.31549 1.81514 5.37044 2.72866 5.9812C2.17657 5.97073 1.63495 5.81044 1.17609 5.55796C1.17609 5.56844 1.17609 5.58206 1.17609 5.59568C1.17609 7.26558 2.36723 8.65263 3.92923 8.97215C3.64952 9.04863 3.34466 9.0853 3.02828 9.0853C2.80828 9.0853 2.58619 9.07272 2.37771 9.02663C2.82295 10.3875 4.08638 11.388 5.58866 11.4204C4.41952 12.335 2.93504 12.8861 1.328 12.8861C1.04619 12.8861 0.775901 12.8735 0.505615 12.8389C2.02781 13.8205 3.83181 14.381 5.77723 14.381C12.1007 14.381 15.5578 9.14292 15.5578 4.60253C15.5578 4.45063 15.5526 4.30396 15.5452 4.15834C16.2272 3.67434 16.8003 3.06987 17.2675 2.37425Z" fill="white"/>
</svg>
