<svg width="188" height="37" viewBox="0 0 188 37" fill="none" xmlns="http://www.w3.org/2000/svg">
<path d="M13.2251 3.9541C19.4896 3.9541 24.1722 7.45409 25.6909 13.1813H18.667C17.5913 10.8904 15.5664 9.80863 13.1618 9.80863C9.23859 9.80863 6.51764 12.7359 6.51764 17.445C6.51764 22.154 9.23859 25.0813 13.1618 25.0813C15.5664 25.0813 17.5913 23.9358 18.667 21.7086H25.6909C24.1722 27.4358 19.4896 30.9358 13.2251 30.9358C5.44191 30.8722 0 25.3358 0 17.3813C0 9.42681 5.44191 3.9541 13.2251 3.9541Z" fill="#404041"/>
<path d="M38.4731 30.9996C32.3351 30.9996 27.7158 26.8632 27.7158 20.1814C27.7158 13.4996 32.4617 9.36328 38.5996 9.36328C44.7376 9.36328 49.4835 13.4996 49.4835 20.1814C49.4835 26.8632 44.6111 30.9996 38.4731 30.9996ZM38.4731 25.3996C40.7511 25.3996 42.9025 23.6814 42.9025 20.1814C42.9025 16.6178 40.8144 14.9633 38.5364 14.9633C36.1951 14.9633 34.1702 16.6178 34.1702 20.1814C34.2335 23.6814 36.1318 25.3996 38.4731 25.3996Z" fill="#404041"/>
<path d="M62.2026 30.9996C56.0646 30.9996 51.4453 26.8632 51.4453 20.1814C51.4453 13.4996 56.1912 9.36328 62.3291 9.36328C68.4671 9.36328 73.2129 13.4996 73.2129 20.1814C73.2129 26.8632 68.3405 30.9996 62.2026 30.9996ZM62.2026 25.3996C64.4806 25.3996 66.632 23.6814 66.632 20.1814C66.632 16.6178 64.5439 14.9633 62.2659 14.9633C59.9246 14.9633 57.8997 16.6178 57.8997 20.1814C57.8997 23.6814 59.8613 25.3996 62.2026 25.3996Z" fill="#404041"/>
<path d="M75.4907 3.9541H81.8818V18.2086L88.2096 9.68135H96.1193L87.4503 20.1813L96.2459 30.6813H88.3362L81.9451 21.8359V30.6813H75.554V3.9541H75.4907Z" fill="#404041"/>
<path d="M97.6382 4.01757C97.6382 2.04485 99.1569 0.517578 101.435 0.517578C103.713 0.517578 105.232 2.04485 105.232 4.01757C105.232 5.92665 103.713 7.45392 101.435 7.45392C99.1569 7.45392 97.6382 5.92665 97.6382 4.01757ZM98.271 9.61755H104.662V30.6175H98.271V9.61755Z" fill="#404041"/>
<path d="M117.57 30.9996C111.432 30.9996 107.003 26.8632 107.003 20.1814C107.003 13.4996 111.369 9.36328 117.57 9.36328C123.645 9.36328 128.011 13.436 128.011 19.8632C128.011 20.436 127.948 21.136 127.885 21.7723H113.394C113.647 24.5087 115.292 25.7814 117.381 25.7814C119.152 25.7814 120.165 24.8905 120.734 23.745H127.568C126.493 27.8178 122.822 30.9996 117.57 30.9996ZM113.457 18.1451H121.494C121.494 15.8542 119.722 14.5178 117.57 14.5178C115.419 14.5178 113.837 15.7905 113.457 18.1451Z" fill="#404041"/>
<path d="M157.563 30.9996C151.425 30.9996 146.995 26.8632 146.995 20.1814C146.995 13.4996 151.361 9.36328 157.563 9.36328C163.637 9.36328 168.003 13.436 168.003 19.8632C168.003 20.436 167.94 21.136 167.877 21.7723H153.386C153.639 24.5087 155.285 25.7814 157.373 25.7814C159.144 25.7814 160.157 24.8905 160.726 23.745H167.56C166.485 27.8178 162.751 30.9996 157.563 30.9996ZM153.386 18.1451H161.422C161.422 15.8542 159.651 14.5178 157.499 14.5178C155.411 14.5178 153.766 15.7905 153.386 18.1451Z" fill="#404041"/>
<path d="M179.583 30.9996C174.015 30.9996 170.281 27.8814 169.965 23.8087H176.293C176.419 25.2723 177.748 26.2269 179.52 26.2269C181.165 26.2269 182.051 25.4632 182.051 24.5087C182.051 21.136 170.661 23.5541 170.661 15.8542C170.661 12.2905 173.698 9.36328 179.14 9.36328C184.519 9.36328 187.556 12.3542 187.936 16.4905H181.988C181.798 15.0905 180.722 14.136 178.887 14.136C177.368 14.136 176.546 14.7087 176.546 15.7269C176.546 19.0996 187.872 16.6814 187.999 24.5723C188.062 28.1996 184.835 30.9996 179.583 30.9996Z" fill="#404041"/>
<path d="M134.656 10H128.012L134.086 21.3272H140.731L134.656 10Z" fill="#0056A7"/>
<path d="M133.96 21.0084L134.15 21.3266H140.794L136.428 13.3721L133.96 21.0084Z" fill="#2E3191"/>
<path d="M146.109 0.454102L134.149 21.3268H140.794L152.753 0.454102H146.109Z" fill="#0056A7"/>
<path d="M134.149 24.4443H140.604V30.9989H134.149V24.4443Z" fill="#0056A7"/>
</svg>
