<svg width="116" height="28" viewBox="0 0 116 28" fill="none" xmlns="http://www.w3.org/2000/svg">
<path d="M115.886 -0.254028H0V28.2539H115.886V-0.254028Z" fill="#8F90A6"/>
<path fill-rule="evenodd" clip-rule="evenodd" d="M46.2961 6.46771L40.637 16.0669C40.5211 16.2794 39.4009 17.9211 37.1218 18.0756C34.862 18.1722 32.9499 16.1056 32.9885 13.8844C33.0658 11.6826 34.7654 9.90566 37.0252 9.86703C38.9566 9.90566 40.3666 11.3349 40.3473 11.3542C40.7529 11.7019 41.0233 11.953 41.3323 12.3972L43.3989 8.90132C43.032 8.53434 42.8775 8.36051 42.4139 8.03217C41.2357 7.00851 39.5168 6.19731 37.1025 6.12005C34.7848 6.08142 32.4284 7.00851 30.6322 9.26829C29.5119 10.6975 29.0677 11.9916 29.0098 13.8844C29.0291 16.1056 29.8596 17.9018 31.0764 19.1959C33.1623 21.3011 35.6732 21.8033 37.0059 21.8033C38.9373 21.726 40.3473 21.2625 41.68 20.4127C42.1049 20.1229 42.5491 19.756 43.032 19.2731H46.6244V21.4556H50.3135V6.46771H46.2961ZM46.6631 16.1442H44.693L46.6631 12.7449V16.1442Z" fill="white"/>
<path fill-rule="evenodd" clip-rule="evenodd" d="M53.964 21.5528V10.0221H51.0669V6.52625H60.8013V10.0221H57.8076V21.5528H53.964Z" fill="white"/>
<path fill-rule="evenodd" clip-rule="evenodd" d="M69.2419 15.7971H65.3018V21.5528H61.4775V6.52625H65.3018V12.224H69.2419V6.52625H73.1048V21.5528H69.2419V15.7971Z" fill="white"/>
<path fill-rule="evenodd" clip-rule="evenodd" d="M104.973 6.52614V14.8699L99.2175 6.52614H95.7602V11.6058C95.3739 10.4469 94.6786 9.38466 93.7129 8.47689C92.187 7.04762 90.1977 6.25574 88.1117 6.25574C85.8906 6.25574 83.9398 6.98968 82.3947 8.45757C80.8495 9.90614 80.019 11.8183 80.019 13.8849C80.019 15.5266 80.4439 16.9752 81.2551 18.2306H78.3194V6.52614H74.4951V21.5527H82.8003V19.9689C84.2489 21.205 86.0451 21.8231 88.0924 21.8231C90.2749 21.8231 92.3609 20.9926 93.8674 19.4861C94.7559 18.6169 95.3739 17.5739 95.7602 16.4344V21.5527H99.6038V13.1896L105.456 21.5527H108.836V6.52614H104.973ZM88.0731 18.0954C85.9099 18.0954 83.9398 16.2799 83.9398 13.9042C83.9398 11.7024 85.7747 9.94477 88.1117 9.94477C90.3136 9.94477 92.1484 11.7024 92.1484 13.9042C92.1677 16.3764 90.3329 18.0954 88.0731 18.0954Z" fill="white"/>
<path fill-rule="evenodd" clip-rule="evenodd" d="M29.0292 9.77018V6.44812H20.4923V12.6287C20.2412 10.8325 19.488 9.38389 18.3098 8.30229C16.6681 6.81509 14.9298 6.50606 12.4382 6.50606H7.06885V21.5326H12.9597C15.1616 21.5326 16.6488 21.2429 18.3291 19.6784C19.5073 18.5582 20.2412 17.1483 20.4923 15.4872V21.4554H29.0292V18.2299H24.2586V15.4486H28.3919V12.2231H24.2586V9.7895H29.0292V9.77018ZM12.4575 18.2492H10.9124V9.75087H12.4382C15.2581 9.75087 16.784 11.2767 16.784 13.9807C16.784 16.9358 15.3933 18.2492 12.4575 18.2492Z" fill="white"/>
</svg>
