<svg width="100" height="28" viewBox="0 0 100 28" fill="none" xmlns="http://www.w3.org/2000/svg">
<path d="M64.4704 22.0377L59.7803 15.7113L64.4704 9.38482H61.1527L56.4388 15.7113V5.17188H53.8188V22.0347H56.4388V15.7113L61.1525 22.0377H64.4704Z" fill="#8F90A6"/>
<path d="M37.0924 5.17188V10.4998C36.1187 9.79712 34.9387 9.3848 33.6664 9.3848C30.3284 9.3848 27.6226 12.2165 27.6226 15.7098C27.6226 19.2032 30.3284 22.0347 33.6664 22.0347C34.9387 22.0347 36.1187 21.6222 37.0924 20.9197V22.0347H39.7122V5.17188H37.0924ZM33.6664 19.2948C31.7742 19.2948 30.2403 17.6898 30.2403 15.7096C30.2403 13.7295 31.7742 12.1241 33.6664 12.1241C35.5585 12.1241 37.0924 13.7295 37.0924 15.7096C37.0924 17.6898 35.5585 19.2948 33.6664 19.2948Z" fill="#8F90A6"/>
<path d="M69.3366 9.38477C65.9988 9.38477 63.293 12.2165 63.293 15.7097C63.293 19.2031 65.9988 22.0346 69.3366 22.0346C72.6746 22.0346 75.3806 19.2029 75.3806 15.7097C75.3806 12.2163 72.6746 9.38477 69.3366 9.38477ZM69.3366 19.2948C67.4446 19.2948 65.9106 17.6898 65.9106 15.7095C65.9106 13.7295 67.4446 12.124 69.3366 12.124C71.2293 12.124 72.7626 13.7295 72.7626 15.7095C72.7626 17.6898 71.2293 19.2948 69.3366 19.2948Z" fill="#8F90A6"/>
<path d="M96.7454 9.38763V10.4998C95.7707 9.79709 94.5914 9.38477 93.3187 9.38477C89.9807 9.38477 87.2754 12.2165 87.2754 15.7097C87.2754 19.2031 89.9807 22.0346 93.3187 22.0346C94.5914 22.0346 95.7707 21.6222 96.7454 20.9197V22.0346H99.3647V9.38763H96.7454ZM93.3187 19.2948C91.4267 19.2948 89.8927 17.6898 89.8927 15.7095C89.8927 13.7295 91.4267 12.124 93.3187 12.124C95.2114 12.124 96.7454 13.7295 96.7454 15.7095C96.7454 17.6898 95.2114 19.2948 93.3187 19.2948Z" fill="#8F90A6"/>
<path d="M78.9089 15.6201H76.2896V22.0347H78.9089V15.6201Z" fill="#8F90A6"/>
<path d="M76.2925 15.7111H78.9098C78.9105 13.732 80.4438 12.128 82.3345 12.1272V9.3877C78.9978 9.38825 76.2931 12.2191 76.2925 15.7111Z" fill="#8F90A6"/>
<path d="M86.1649 9.3877H83.5449V22.0346H86.1649V9.3877Z" fill="#8F90A6"/>
<path d="M84.8609 7.92652C85.5876 7.92652 86.1769 7.30984 86.1769 6.54931C86.1769 5.78855 85.5876 5.17188 84.8609 5.17188C84.1343 5.17188 83.5449 5.78855 83.5449 6.54931C83.5449 7.30963 84.1343 7.92652 84.8609 7.92652Z" fill="#8F90A6"/>
<path d="M49.1873 18.241C48.5679 18.892 47.7124 19.2952 46.7651 19.2952C45.2619 19.2952 43.9878 18.2806 43.5265 16.8714H47.3017V16.8705H52.7056C52.7724 16.4939 52.8089 16.1065 52.8089 15.7099C52.8089 12.2167 50.1031 9.38477 46.7651 9.38477C43.9485 9.38477 41.582 11.401 40.9115 14.1295H40.9105V14.1331C40.787 14.6373 40.7212 15.1651 40.7212 15.7097C40.7212 19.2031 43.4271 22.0346 46.7651 22.0346C49.2426 22.0346 51.371 20.4739 52.304 18.2409H49.1873V18.241ZM46.7651 12.1246C48.1145 12.1246 49.2784 12.9432 49.8369 14.1296H43.6932C44.2517 12.9432 45.4157 12.1246 46.7651 12.1246Z" fill="#8F90A6"/>
<path d="M0.472168 -0.203125V2.53863V26.0695V28.7797V28.8111H8.12704V26.0695H3.09206V2.53863H21.0283V26.0695H13.37V22.7724H10.7502V26.0695H10.7469V28.8111H10.7502H13.37H21.0283H23.6482V26.0695V2.53863V-0.171548V-0.203125" fill="#8F90A6"/>
<path d="M16.6407 8.27462C16.1884 8.36839 15.363 8.64076 15.363 8.64076C15.363 8.64076 15.2138 8.19899 14.7327 7.68383C13.7617 6.64409 12.0682 5.62793 12.0682 5.62793C12.0682 5.62793 10.3746 6.64409 9.40363 7.68383C8.92263 8.19899 8.77336 8.64076 8.77336 8.64076C8.77336 8.64076 7.94803 8.36839 7.49549 8.27462C6.41163 8.05004 5.53857 8.05004 5.53857 8.05004L5.54237 14.5901C5.54237 17.6795 7.98123 21.13 12.0682 21.13C16.1551 21.13 18.594 17.6795 18.594 14.5901L18.5976 8.05004C18.5976 8.05004 17.7246 8.05004 16.6407 8.27462ZM11.4397 9.07806C11.7029 8.81811 12.0682 8.56988 12.0682 8.56988C12.0682 8.56988 12.4334 8.81811 12.6966 9.07806C12.96 9.33802 13.1464 9.63439 13.1464 9.63439C13.1464 9.63439 12.7406 9.84843 12.5236 10.0153C12.3878 10.12 12.2522 10.2439 12.1175 10.3815L12.1177 10.38C12.1177 10.38 11.8391 10.1681 11.6128 10.0153C11.3864 9.86281 10.9899 9.63439 10.9899 9.63439C10.9899 9.63439 11.1763 9.33802 11.4397 9.07806ZM7.98123 10.9921C7.98123 10.9921 9.23676 11.4744 10.0697 11.961C10.2691 12.0774 10.4874 12.2134 10.7043 12.3531C9.52776 14.3956 8.65576 16.8345 8.64876 16.8543C7.98289 15.7739 7.98123 14.584 7.98123 14.584V10.9921ZM16.1551 14.584C16.1551 14.584 16.1551 18.5741 12.0682 18.5741C10.2135 18.5741 9.20223 17.7521 8.64889 16.8543C8.66189 16.8297 9.91396 14.4802 14.0665 11.9609C14.8918 11.4601 16.1551 10.992 16.1551 10.992V14.584Z" fill="#8F90A6"/>
</svg>
