<svg width="142" height="28" viewBox="0 0 142 28" fill="none" xmlns="http://www.w3.org/2000/svg">
<path d="M141.123 17.5175C140.914 16.4619 139.965 15.7009 138.952 15.777C137.818 15.8628 136.965 16.7031 136.91 17.8074C136.867 18.3498 137.031 18.8885 137.369 19.3146C137.707 19.7408 138.195 20.0226 138.733 20.1033C139.745 20.2733 140.752 19.6176 141.074 18.5927C141.11 18.4793 141.074 18.3417 141.184 18.251V17.6859C141.123 17.6455 141.134 17.5775 141.123 17.5175ZM139.034 19.7844C138.549 19.7844 138.084 19.5916 137.74 19.2485C137.397 18.9053 137.205 18.44 137.205 17.9547C137.205 17.4695 137.397 17.0041 137.74 16.661C138.084 16.3178 138.549 16.1251 139.034 16.1251C139.519 16.1251 139.985 16.3178 140.328 16.661C140.671 17.0041 140.864 17.4695 140.864 17.9547C140.864 18.44 140.671 18.9053 140.328 19.2485C139.985 19.5916 139.519 19.7844 139.034 19.7844Z" fill="#8F90A6"/>
<path d="M46.4607 13.0329C44.8416 11.9092 43.0168 11.451 41.0771 11.425C38.7034 11.3943 36.3265 11.425 33.9528 11.425C33.3942 11.425 33.2922 11.5254 33.2922 12.0727V19.8446C33.2922 22.4449 33.2922 25.0453 33.2922 27.6456C33.2922 28.1492 33.4201 28.2739 33.9205 28.2739C36.2229 28.2739 38.5248 28.2739 40.8261 28.2739C41.7156 28.2773 42.6023 28.1734 43.4669 27.9646C46.124 27.3056 48.109 25.8273 49.1534 23.2399C49.7735 21.705 49.8885 20.0972 49.6747 18.4716C49.3768 16.208 48.3584 14.3541 46.4607 13.0329ZM43.4718 22.7477C42.7254 23.4877 41.796 23.7856 40.7711 23.8164C40.0295 23.839 39.2863 23.8164 38.5431 23.8164C38.3666 23.8164 38.3116 23.7678 38.3116 23.5881C38.3181 21.0816 38.3181 18.5752 38.3116 16.0688C38.3116 15.9068 38.3585 15.855 38.5237 15.8583C38.9528 15.8696 39.3818 15.8583 39.8109 15.8583C40.5428 15.8583 41.2762 15.8243 41.9935 16.0202C43.5495 16.4266 44.5145 17.6199 44.6489 19.3119C44.7542 20.6266 44.4303 21.7957 43.4718 22.7461V22.7477Z" fill="#8F90A6"/>
<path d="M83.0201 15.9142C81.1694 15.4706 79.5244 15.9142 78.1238 17.2096C77.915 17.4039 77.7352 17.6273 77.5328 17.8475C77.107 16.7611 76.3412 16.0907 75.2175 15.8738C73.302 15.5062 71.6246 16.0033 70.1771 17.331C70.1641 17.3116 70.1544 17.3051 70.1544 17.297C70.1544 17.0671 70.1544 16.8371 70.1544 16.6072C70.1544 16.2024 70.0087 16.0551 69.6104 16.0535C68.4813 16.0535 67.3517 16.0535 66.2215 16.0535C65.8199 16.0535 65.6726 16.1944 65.6726 16.6024C65.6726 20.3102 65.6726 24.0175 65.6726 27.7243C65.6726 28.1274 65.8216 28.2651 66.2296 28.2651H69.5246C70.0313 28.2651 70.1544 28.1436 70.1544 27.6417C70.1544 25.4289 70.1544 23.216 70.1544 21.0032C70.1544 20.8818 70.1269 20.7587 70.2256 20.6486C70.5721 20.2568 70.9688 19.9297 71.495 19.839C72.5426 19.648 73.3263 20.0301 73.3101 21.2963C73.2842 23.4271 73.3101 25.5579 73.3101 27.6887C73.3101 28.1533 73.438 28.278 73.9076 28.278H77.1718C77.6656 28.278 77.7789 28.1647 77.7789 27.6725V21.034C77.7684 20.9623 77.7728 20.8892 77.7917 20.8193C77.8107 20.7494 77.8438 20.6841 77.8891 20.6276C78.1575 20.319 78.4955 20.0787 78.8751 19.9265C80.1024 19.4715 80.9687 20.0625 80.98 21.3594V27.7502C80.98 28.1291 81.1144 28.2796 81.4657 28.2813C82.6272 28.2813 83.7887 28.2813 84.9501 28.2813C85.274 28.2813 85.4359 28.1194 85.4359 27.7955C85.4359 24.8924 85.4521 21.9893 85.4359 19.0862C85.3986 17.4541 84.5065 16.2721 83.0201 15.9142Z" fill="#8F90A6"/>
<path d="M26.3629 5.32882L20.8303 -0.307421C20.7358 -0.410499 20.6198 -0.491609 20.4906 -0.54504C20.3614 -0.598471 20.222 -0.622924 20.0823 -0.616678C19.6597 -0.647442 19.4006 -0.352756 19.1286 -0.0742636L14.9188 4.22295C13.5296 5.64132 12.1388 7.05861 10.7463 8.47482C10.6184 8.60273 10.5844 8.67397 10.735 8.8197C13.8124 11.95 16.8855 15.0804 19.9544 18.2107C20.1681 18.4293 20.249 18.3046 20.3851 18.1654C23.2078 15.2833 26.0305 12.4034 28.8532 9.52564C29.381 8.98646 29.3778 8.39224 28.8418 7.85468C28.0128 7.01758 27.1903 6.16916 26.3629 5.32882ZM20.1001 11.0671C19.465 11.0615 18.8581 10.8038 18.4129 10.3508C17.9678 9.89774 17.7208 9.28643 17.7264 8.65131C17.732 8.01619 17.9897 7.4093 18.4427 6.96415C18.8957 6.519 19.5071 6.27205 20.1422 6.27764C20.4567 6.2804 20.7675 6.34508 21.057 6.46798C21.3465 6.59088 21.6089 6.76959 21.8293 6.99392C22.0497 7.21824 22.2238 7.48379 22.3416 7.77538C22.4594 8.06698 22.5186 8.37893 22.5158 8.69341C22.5131 9.00789 22.4484 9.31874 22.3255 9.60822C22.2026 9.8977 22.0239 10.1601 21.7996 10.3806C21.5752 10.601 21.3097 10.775 21.0181 10.8928C20.7265 11.0106 20.4146 11.0698 20.1001 11.0671Z" fill="#8F90A6"/>
<path d="M19.4004 18.7982C19.1882 18.5991 18.9923 18.3789 18.7883 18.17C15.9386 15.2706 13.09 12.3691 10.2425 9.46548C10.0595 9.27765 9.9656 9.25013 9.75673 9.45576C7.94329 11.321 6.11527 13.1798 4.29212 15.0321C3.27529 16.0683 2.25361 17.1014 1.24327 18.1457C0.757524 18.6428 0.773715 19.2257 1.25136 19.726C1.46833 19.9527 1.69501 20.168 1.91521 20.3931C4.37739 22.9092 6.84119 25.4259 9.30661 27.9431C9.40558 28.0452 9.52452 28.1258 9.65601 28.1798C9.7875 28.2339 9.92871 28.2602 10.0708 28.2573C10.2162 28.2496 10.3586 28.2132 10.4898 28.1501C10.621 28.0871 10.7384 27.9985 10.8351 27.8897C12.1682 26.5307 13.5018 25.1733 14.836 23.8176C16.3601 22.2664 17.8854 20.7169 19.4117 19.169C19.5671 19.0119 19.5412 18.9326 19.4004 18.7982ZM6.57673 21.2755C6.10461 21.2825 5.64102 21.1493 5.24471 20.8926C4.8484 20.6359 4.53719 20.2674 4.35052 19.8337C4.16386 19.4 4.11013 18.9206 4.19614 18.4563C4.28215 17.992 4.50404 17.5638 4.83369 17.2257C5.16334 16.8876 5.58591 16.655 6.04787 16.5574C6.50983 16.4597 6.99039 16.5013 7.42866 16.677C7.86693 16.8527 8.24319 17.1546 8.50977 17.5443C8.77635 17.934 8.92125 18.3941 8.92611 18.8662C8.9359 19.1804 8.88229 19.4933 8.7685 19.7862C8.6547 20.0792 8.48304 20.3463 8.26376 20.5714C8.04449 20.7966 7.78209 20.9753 7.49224 21.0968C7.20239 21.2183 6.89102 21.2802 6.57673 21.2788V21.2755ZM13.4824 21.3889C12.8608 21.3753 12.2694 21.118 11.8357 20.6725C11.4019 20.227 11.1606 19.6289 11.1638 19.0071C11.173 18.5467 11.3182 18.0994 11.581 17.7213C11.8439 17.3433 12.2126 17.0514 12.6409 16.8823C13.0692 16.7133 13.5379 16.6747 13.9881 16.7713C14.4383 16.8679 14.8499 17.0955 15.1711 17.4255C15.4923 17.7554 15.7087 18.1729 15.7932 18.6256C15.8777 19.0782 15.8265 19.5457 15.6461 19.9693C15.4656 20.3929 15.1639 20.7537 14.7789 21.0063C14.3939 21.2588 13.9428 21.392 13.4824 21.3889Z" fill="#8F90A6"/>
<path d="M107.2 19.1544C107.14 17.4866 106.093 16.2172 104.467 15.8934C102.477 15.4967 100.67 15.8934 99.1237 17.4008C99.1237 17.0964 99.1237 16.8503 99.1237 16.6042C99.1237 16.1849 98.999 16.0569 98.5878 16.0569C97.4673 16.0569 96.3474 16.0569 95.228 16.0569C94.8038 16.0569 94.6565 16.1978 94.6565 16.6123C94.6565 20.3094 94.6565 24.0064 94.6565 27.7034C94.6565 28.1244 94.8006 28.2685 95.2183 28.2685H98.5457C99.0007 28.2685 99.1237 28.1471 99.1237 27.6986C99.1237 25.5581 99.1399 23.4176 99.1124 21.2771C99.0959 21.0766 99.1345 20.8754 99.2241 20.6953C99.3137 20.5152 99.4509 20.3631 99.6208 20.2554C99.713 20.1869 99.8087 20.1231 99.9074 20.0643C101.365 19.2337 102.751 20.019 102.751 21.6835V27.6371C102.751 28.1633 102.862 28.2718 103.398 28.2718H106.664C107.092 28.2718 107.219 28.1438 107.219 27.7099C107.219 26.1232 107.219 24.5359 107.219 22.948C107.218 21.6818 107.247 20.4173 107.2 19.1544Z" fill="#8F90A6"/>
<path d="M57.7615 15.7023C54.2803 15.5404 51.2849 18.3027 51.1618 21.9117C51.0469 25.2747 53.4966 28.3009 57.0507 28.5778C60.5189 28.8465 63.5807 26.1248 63.7976 22.561C64.0195 18.9034 61.2896 15.8659 57.7615 15.7023ZM59.6283 22.1206C59.562 23.3722 58.5856 24.2886 57.3777 24.2255C56.9455 24.2121 56.527 24.0707 56.1752 23.8191C55.8234 23.5676 55.5542 23.2174 55.4017 22.8127C55.2491 22.408 55.2202 21.9672 55.3184 21.5461C55.4167 21.125 55.6377 20.7425 55.9536 20.4471C56.2694 20.1517 56.6658 19.9567 57.0926 19.8868C57.5193 19.8169 57.9572 19.8753 58.3508 20.0545C58.7443 20.2338 59.0758 20.5258 59.3033 20.8936C59.5307 21.2614 59.6438 21.6884 59.6283 22.1206Z" fill="#8F90A6"/>
<path d="M114.648 15.7661C111.429 16.1531 109.083 18.8781 109.083 22.2135C109.074 22.7662 109.143 23.3174 109.289 23.8505C110.098 27.0483 113.382 29.1515 116.551 28.5007C117.437 28.3243 118.275 27.9636 119.013 27.442C119.75 26.9204 120.37 26.2496 120.831 25.473C121.293 24.6965 121.586 23.8316 121.691 22.9345C121.797 22.0374 121.712 21.1281 121.444 20.2657C120.579 17.403 117.857 15.3807 114.648 15.7661ZM115.395 24.2666C114.823 24.2526 114.28 24.0162 113.88 23.6076C113.48 23.199 113.256 22.6506 113.254 22.079C113.253 21.5074 113.474 20.9578 113.872 20.5471C114.27 20.1365 114.812 19.8973 115.383 19.8803C115.955 19.8943 116.498 20.1307 116.898 20.5393C117.298 20.9479 117.522 21.4964 117.524 22.0679C117.525 22.6395 117.303 23.1891 116.906 23.5998C116.508 24.0104 115.966 24.2497 115.395 24.2666Z" fill="#8F90A6"/>
<path d="M134.507 21.1041C133.631 20.6767 132.684 20.5196 131.732 20.3804C131.102 20.2881 130.461 20.2573 129.852 20.0468C129.69 19.9885 129.517 19.9076 129.505 19.689C129.503 19.5941 129.529 19.5008 129.581 19.4215C129.633 19.3421 129.709 19.2807 129.797 19.2453C130.048 19.1198 130.325 19.0544 130.606 19.0543C131.776 18.9961 132.93 19.3388 133.879 20.0258C134.193 20.2411 134.414 20.1877 134.602 19.8541C134.984 19.1838 135.362 18.5119 135.736 17.8383C135.915 17.5145 135.86 17.3202 135.551 17.1291C134.25 16.3178 132.761 15.858 131.23 15.7949C129.923 15.7334 128.639 15.816 127.421 16.3616C126.087 16.9624 125.253 17.9387 125.216 19.4607C125.176 21.0701 125.899 22.2132 127.365 22.8884C128.286 23.3126 129.275 23.481 130.266 23.6413C130.873 23.7401 131.49 23.8032 132.07 24.0218C132.308 24.1141 132.546 24.2404 132.528 24.548C132.51 24.8557 132.264 24.9334 132.042 25.0127C131.613 25.1504 131.16 25.2021 130.71 25.1649C129.415 25.0953 128.262 24.5934 127.159 23.9522C126.77 23.7255 126.594 23.7628 126.366 24.1481C125.945 24.8562 125.526 25.5659 125.109 26.2773C124.876 26.6756 124.913 26.8618 125.305 27.1047C126.751 27.9819 128.394 28.4829 130.083 28.5619C131.379 28.5878 132.36 28.5036 133.31 28.2186C135.198 27.6519 136.26 26.4376 136.43 24.6565C136.591 23.0341 135.917 21.7939 134.507 21.1041Z" fill="#8F90A6"/>
<path d="M91.6776 16.0569C90.5907 16.0569 89.5031 16.0569 88.4151 16.0569C87.8775 16.0569 87.7512 16.1816 87.7512 16.7175V27.5204C87.7512 28.1681 87.8451 28.2701 88.4847 28.2701H91.6874C92.1019 28.2701 92.2541 28.1211 92.2557 27.705C92.2557 24.008 92.2557 20.3125 92.2557 16.6187C92.2508 16.2075 92.0954 16.0569 91.6776 16.0569Z" fill="#8F90A6"/>
<path d="M122.836 10.1603C122.196 10.2596 121.62 10.6062 121.232 11.1258C120.844 11.6453 120.675 12.2963 120.762 12.9387C120.915 13.9329 121.658 14.6566 122.768 14.8461C123.024 14.8898 122.994 14.9756 122.917 15.1456C122.783 15.442 122.564 15.6921 122.288 15.8645C122.249 15.8818 122.215 15.9076 122.188 15.9398C122.16 15.9721 122.141 16.0101 122.13 16.051C122.12 16.0919 122.118 16.1346 122.127 16.1761C122.135 16.2175 122.152 16.2566 122.177 16.2904C122.605 16.951 122.522 16.9834 123.198 16.6498L123.282 16.6093C124.801 15.7819 125.72 14.5611 125.808 13.0942C125.816 11.1285 124.449 9.92065 122.836 10.1603Z" fill="#8F90A6"/>
<path d="M90.118 10.068C89.6098 10.0583 89.1102 10.2002 88.683 10.4755C88.2557 10.7507 87.92 11.147 87.7188 11.6137C87.5175 12.0804 87.4597 12.5965 87.5528 13.0962C87.6459 13.5959 87.8856 14.0565 88.2415 14.4195C88.5973 14.7824 89.0531 15.0312 89.5509 15.1342C90.0486 15.2371 90.5657 15.1896 91.0363 14.9976C91.507 14.8056 91.9098 14.4778 92.1935 14.0561C92.4771 13.6344 92.6288 13.1377 92.6293 12.6295C92.6329 12.2963 92.5708 11.9657 92.4465 11.6565C92.3222 11.3474 92.1381 11.0658 91.9049 10.8279C91.6716 10.5899 91.3937 10.4003 91.0871 10.27C90.7805 10.1396 90.4511 10.0709 90.118 10.068Z" fill="#8F90A6"/>
<path d="M20.7427 25.3737C20.4998 25.4012 20.1679 25.1665 20.0238 25.5826C19.8619 26.023 19.6918 26.4569 19.504 26.9459C19.3502 26.5379 19.2142 26.1801 19.0782 25.8222C18.8952 25.3365 18.8952 25.3527 18.369 25.3575C18.1779 25.3575 18.1148 25.4142 18.118 25.6069C18.1278 26.3063 18.1326 27.0058 18.118 27.7118C18.118 27.966 18.2379 27.9595 18.4241 27.9708C18.6491 27.9838 18.6783 27.8834 18.675 27.6956C18.6637 27.226 18.675 26.7565 18.675 26.2869C18.906 26.7559 19.113 27.2363 19.2952 27.7263C19.334 27.8235 19.334 27.9595 19.4975 27.966C19.6611 27.9724 19.6821 27.8251 19.7242 27.7166C19.9137 27.2309 20.0966 26.7548 20.2812 26.2723C20.3231 26.7515 20.3361 27.2327 20.3201 27.7134C20.3201 27.9303 20.3994 27.9757 20.5953 27.9692C20.7912 27.9627 20.9094 27.9692 20.903 27.715C20.8852 27.0463 20.903 26.3792 20.8916 25.7105C20.8852 25.5826 20.9888 25.3462 20.7427 25.3737Z" fill="#8F90A6"/>
<path d="M17.5936 25.356C17.0706 25.3706 16.5476 25.3673 16.0263 25.356C15.8368 25.356 15.7737 25.4078 15.7737 25.6021C15.7737 25.7964 15.8239 25.8968 16.0344 25.8709C16.1169 25.8595 16.1963 25.8709 16.2853 25.8709C16.4634 25.8514 16.525 25.9259 16.5169 26.1024C16.5039 26.3728 16.5169 26.6448 16.5169 26.912C16.5169 27.1791 16.5282 27.4755 16.5169 27.7572C16.5039 28.0049 16.6788 27.9482 16.8083 27.9531C16.9378 27.958 17.0981 27.9839 17.09 27.7458C17.0755 27.2973 17.09 26.8488 17.09 26.3987C17.09 25.8935 17.09 25.8838 17.6066 25.8725C17.796 25.8725 17.8316 25.7915 17.8284 25.6264C17.8251 25.4612 17.817 25.3511 17.5936 25.356Z" fill="#8F90A6"/>
<path d="M139.988 17.2649C139.902 16.912 139.589 16.7128 139.113 16.7112C138.883 16.7112 138.652 16.7112 138.422 16.7112C138.278 16.7112 138.219 16.7533 138.219 16.9071C138.219 17.6066 138.219 18.306 138.219 19.012C138.219 19.1221 138.219 19.216 138.381 19.2144C138.543 19.2128 138.597 19.1788 138.587 19.0217C138.577 18.8551 138.577 18.688 138.587 18.5214C138.595 18.421 138.517 18.2672 138.694 18.2397C138.835 18.2186 138.979 18.2073 139.073 18.3757C139.181 18.5764 139.332 18.7562 139.439 18.9586C139.565 19.2014 139.737 19.2727 140.018 19.1674L139.421 18.2429C139.908 18.0049 140.09 17.6875 139.988 17.2649ZM138.946 17.8932C138.548 17.9272 138.553 17.7183 138.582 17.511C138.582 16.98 138.527 17.035 139 17.0253C139.434 17.0253 139.631 17.1564 139.638 17.4495C139.644 17.7426 139.437 17.8527 138.946 17.8932Z" fill="#8F90A6"/>
</svg>
