<svg width="68" height="20" viewBox="0 0 68 20" fill="none" xmlns="http://www.w3.org/2000/svg">
<path d="M61.9169 0C50.2282 0.00265252 47.2634 6.27321 46.786 10.5305C46.2444 15.3103 49.7257 20 58.3073 20C61.9197 20 64.2815 19.4032 65.1189 19.1512C65.223 19.1201 65.3162 19.0628 65.3885 18.9852C65.4608 18.9076 65.5095 18.8128 65.5293 18.7109L66.0123 16.2971C66.0289 16.2141 66.0227 16.1285 65.9941 16.0486C65.9655 15.9686 65.9156 15.8971 65.8492 15.841C65.7828 15.7848 65.7022 15.746 65.6153 15.7283C65.5284 15.7107 65.4382 15.7147 65.3535 15.7401C64.4155 16.0212 62.7572 16.4085 60.6495 16.4085C56.5485 16.4085 53.5866 14.069 53.9634 10.0424C54.3263 6.14324 57.0929 3.17241 60.9007 3.17241C63.1899 3.17241 64.2033 4.313 64.1279 5.83289V5.92042C64.1245 5.98605 64.1351 6.05166 64.1591 6.1133C64.183 6.17495 64.2198 6.23136 64.2672 6.27917C64.3147 6.32697 64.3718 6.36518 64.4352 6.3915C64.4985 6.41783 64.5668 6.43173 64.636 6.43236H66.1909C66.431 6.43236 66.6376 6.27321 66.6935 6.05305L67.7822 1.38462C67.8168 1.24237 67.7926 1.09294 67.7147 0.967107C67.6368 0.841272 67.5111 0.748614 67.3635 0.708223C65.5913 0.23772 63.7597 0.000319598 61.9197 0.00265359L61.9169 0ZM5.64515 0.307693C5.51846 0.307753 5.39556 0.348747 5.29664 0.423942C5.19771 0.499138 5.12864 0.604064 5.10077 0.721486L4.79927 2.00531C4.77011 2.13161 4.79102 2.2637 4.85798 2.37627C4.92495 2.48884 5.03326 2.57398 5.16219 2.61538L5.25431 2.64191C5.83498 2.85942 6.51057 3.34748 6.22582 4.626L4.01481 14.2281C3.43694 16.8462 2.50173 17.3846 1.61397 17.4801H1.58606C1.46828 17.4911 1.35722 17.5373 1.26891 17.6122C1.1806 17.687 1.1196 17.7866 1.09472 17.8966L0.809971 19.1273C0.792893 19.2016 0.793515 19.2785 0.81179 19.3525C0.830065 19.4264 0.865531 19.4956 0.915588 19.5548C0.965644 19.6141 1.02902 19.662 1.10108 19.6949C1.17314 19.7279 1.25204 19.7451 1.33201 19.7454H11.0666C11.3039 19.7454 11.5105 19.5862 11.5607 19.3687L11.8957 17.9284C11.9215 17.8154 11.9042 17.6974 11.8469 17.5954C11.7897 17.4934 11.6961 17.414 11.583 17.3714L11.5216 17.3448C11.0275 17.1591 10.3547 16.7507 10.5278 15.992L11.6584 11.0849C15.536 17.809 16.8174 19.748 21.4683 19.7454H25.6726C25.7878 19.7455 25.8996 19.7082 25.9895 19.6397C26.0794 19.5712 26.1419 19.4756 26.1667 19.3687L26.4599 18.122C26.4777 18.0472 26.4778 17.9696 26.4601 17.8948C26.4425 17.8199 26.4075 17.7498 26.3578 17.6893C26.3081 17.6289 26.2449 17.5797 26.1728 17.5454C26.1006 17.511 26.0213 17.4924 25.9406 17.4907C24.8909 17.4748 24.3773 17.244 23.3304 15.9655L17.9369 9.03183L24.944 3.49337C25.8848 2.7931 27.0322 2.59682 27.6687 2.51724L27.7301 2.51194C27.8387 2.50208 27.9412 2.45982 28.0229 2.3912C28.1047 2.32259 28.1614 2.23114 28.1851 2.12997L28.4727 0.899206C28.4889 0.827946 28.4882 0.754128 28.4705 0.683177C28.4528 0.612227 28.4186 0.545946 28.3704 0.489207C28.3222 0.432468 28.2612 0.386712 28.1919 0.355301C28.1227 0.323889 28.0469 0.307621 27.9702 0.307693H19.5393C19.4138 0.308337 19.2923 0.349325 19.1944 0.42398C19.0966 0.498635 19.0283 0.602561 19.0005 0.718835L18.7158 1.93899C18.6852 2.06992 18.7079 2.20701 18.7794 2.32266C18.8508 2.43831 18.9658 2.52395 19.101 2.56234C19.5979 2.74536 19.7068 3.19894 19.2769 3.53316L12.0939 9.20424L13.3222 3.86207C13.4057 3.5548 13.5726 3.27375 13.8063 3.04704C14.04 2.82034 14.3323 2.65594 14.6539 2.57029L14.7237 2.54907C14.8171 2.52137 14.9011 2.47072 14.9673 2.40225C15.0335 2.33378 15.0794 2.24992 15.1005 2.15915L15.3965 0.893901C15.4128 0.8237 15.4123 0.750915 15.395 0.680921C15.3777 0.610927 15.3442 0.545508 15.2967 0.489495C15.2493 0.433483 15.1892 0.388306 15.121 0.357299C15.0527 0.326292 14.978 0.310246 14.9023 0.310346L5.64515 0.307693ZM30.4352 0.307693C30.309 0.308353 30.1868 0.349623 30.0884 0.42477C29.99 0.499916 29.9214 0.604506 29.8936 0.721486L29.5949 2.00265C29.5663 2.12304 29.5852 2.24922 29.6479 2.35727C29.7107 2.46532 29.813 2.54772 29.9355 2.58886L29.9913 2.61008C30.5608 2.81432 31.3509 3.33687 31.0075 4.62069L27.6296 19.1565C27.6128 19.2272 27.613 19.3007 27.6302 19.3713C27.6474 19.442 27.6811 19.508 27.7288 19.5646C27.7766 19.6212 27.8371 19.6668 27.906 19.6981C27.9748 19.7294 28.0502 19.7455 28.1265 19.7454H35.879C36.1191 19.7454 36.3256 19.5862 36.3787 19.366L36.7137 17.9151C36.7377 17.8118 36.7236 17.7038 36.6738 17.6091C36.624 17.5145 36.5415 17.439 36.4401 17.3952C36.4149 17.384 36.3897 17.3725 36.3647 17.3607C35.8734 17.1326 35.142 16.6048 35.3876 15.5836C35.4128 15.4509 36.1414 12.2944 36.1414 12.2944H42.7353C42.9754 12.2944 43.182 12.1353 43.2378 11.9151L43.8548 9.2626C43.8721 9.19111 43.8721 9.11681 43.8548 9.04531C43.8376 8.97381 43.8035 8.90695 43.7551 8.84977C43.7068 8.79259 43.6454 8.74656 43.5756 8.71515C43.5058 8.68375 43.4295 8.66777 43.3523 8.66844H36.9873L38.1793 3.52255L42.6236 3.51459C44.0614 3.51459 44.4997 4.23077 44.4159 5.44562L44.4103 5.50928C44.4021 5.57767 44.4091 5.64695 44.431 5.71257C44.4529 5.77819 44.4892 5.83866 44.5374 5.89001C44.5857 5.94136 44.6448 5.98244 44.711 6.01054C44.7771 6.03864 44.8487 6.05313 44.9212 6.05305H46.5599C46.8 6.05305 47.0066 5.8939 47.0568 5.67109L48.1735 0.896552C48.1893 0.825478 48.1882 0.751951 48.1703 0.681336C48.1523 0.61072 48.118 0.544798 48.0699 0.488375C48.0217 0.431951 47.9609 0.38645 47.8919 0.355192C47.8229 0.323934 47.7474 0.307706 47.671 0.307693H30.4352Z" fill="#8F90A6"/>
</svg>
