<svg width="118" height="28" viewBox="0 0 118 28" fill="none" xmlns="http://www.w3.org/2000/svg">
<path d="M11.3471 -2.03535C10.9326 -1.25551 5.34606 9.26938 2.93963 13.7914C2.85623 13.9478 2.86265 14.0608 2.94412 14.214C5.3018 18.6449 10.08 27.6334 10.1294 27.7173C10.1788 27.634 14.957 18.6449 17.3147 14.2146C17.3962 14.0615 17.4032 13.9484 17.3192 13.7921C15.97 11.2652 14.6298 8.73312 13.2807 6.20625C13.1941 6.04472 13.1883 5.9239 13.2781 5.76109C13.6489 5.08785 14.0043 4.40622 14.3803 3.6994C14.4335 3.79049 18.0089 10.5118 19.7622 13.805C19.836 13.9432 19.8424 14.0466 19.7667 14.1894C16.992 19.404 14.2218 24.6213 11.4548 29.8404C11.3811 29.98 11.306 30.0433 11.1379 30.0407C10.4528 30.0291 9.76694 30.0323 9.08177 30.0388C8.95475 30.0401 8.88739 29.9994 8.82772 29.8856C6.04663 24.6406 3.26297 19.3969 0.476105 14.1552C0.418366 14.046 0.413234 13.9646 0.472898 13.8515C3.26041 8.60843 6.04342 3.36472 8.83093 -1.87705C8.86622 -1.94296 8.94897 -2.02759 9.01056 -2.02824C9.77528 -2.03922 10.54 -2.03535 11.3471 -2.03535Z" fill="#8F90A6"/>
<path d="M14.5162 1.17545C13.2408 3.56923 9.7251 10.1827 7.80881 13.7846C7.72734 13.9384 7.72156 14.0515 7.80496 14.2072C9.15413 16.7347 10.4943 19.2661 11.8435 21.793C11.9301 21.9552 11.9346 22.0753 11.8448 22.2382C11.474 22.9114 11.1185 23.593 10.7419 24.3005C10.6919 24.2152 7.11723 17.4932 5.36004 14.1936C5.28626 14.0554 5.28049 13.952 5.35619 13.8092C8.13023 8.5952 10.9004 3.37798 13.6674 -1.84117C13.7418 -1.98138 13.8175 -2.0434 13.9843 -2.04082C14.6695 -2.02919 15.3553 -2.03242 16.0405 -2.03888C16.1681 -2.04017 16.2342 -1.99817 16.2945 -1.88511C19.0762 3.35989 21.8599 8.6036 24.6468 13.8454C24.7051 13.9546 24.709 14.0366 24.6493 14.149C21.8625 19.3908 19.0795 24.6345 16.2919 29.8763C16.2567 29.9422 16.1739 30.0262 16.1123 30.0268C15.3476 30.0372 14.5829 30.0333 13.7816 30.0333C13.8342 29.9299 19.4233 19.3953 22.1839 14.2065C22.2673 14.0502 22.2609 13.9371 22.1788 13.784C19.8211 9.35307 15.0429 0.364596 14.9935 0.28125C14.9845 0.296757 14.8093 0.624327 14.5162 1.17545Z" fill="#8F90A6"/>
<path d="M34.0929 20.8124H31.476V9.36062C31.476 9.21477 31.4601 9.11997 31.4268 9.0733C31.3935 9.02663 31.3124 8.97704 31.1806 8.92454L30.4724 8.64743L30.6882 7.49817H37.2977C39.0022 7.49817 40.2288 7.82486 40.976 8.47825C41.7233 9.13164 42.0969 10.1861 42.0969 11.6387C42.0969 12.788 41.8638 13.6733 41.3989 14.2931C40.9326 14.9144 40.2085 15.3169 39.2252 15.5022L42.4517 20.8124H39.5612L36.6301 15.7997H34.0929V20.8124ZM34.0929 13.8191H37.0037C37.9088 13.8191 38.5547 13.6543 38.9414 13.3232C39.328 12.9936 39.5221 12.4321 39.5221 11.6387C39.5221 10.8599 39.328 10.3042 38.9414 9.97463C38.5547 9.64502 37.9088 9.47875 37.0037 9.47875H34.0929V13.8191Z" fill="#8F90A6"/>
<path d="M54.2368 7.49915V9.52056H47.3116V13.0675H52.8205V15.0087H47.3116V18.7934H54.3932V20.8149H44.6962V9.36305C44.6962 9.21721 44.6803 9.12241 44.647 9.07574C44.6137 9.02907 44.5326 8.97948 44.4008 8.92698L43.6926 8.64987L43.9084 7.50061H54.2368V7.49915Z" fill="#8F90A6"/>
<path d="M56.559 9.36062C56.559 9.21477 56.5431 9.11997 56.5098 9.0733C56.4765 9.02663 56.3954 8.97704 56.2636 8.92454L55.5554 8.64743L55.7712 7.49817H58.7226C58.9195 7.49817 59.047 7.52151 59.1064 7.56818C59.1657 7.61485 59.2729 7.74319 59.4307 7.95467L66.2184 17.2071V7.49963H68.6383V20.8124H66.1011L58.9804 11.1049V20.8124H56.5605V9.36062H56.559Z" fill="#8F90A6"/>
<path d="M77.9815 7.49915C78.2436 7.9746 78.526 8.54632 78.8272 9.21283C79.1284 9.87934 79.4398 10.6027 79.7613 11.3816C80.0828 12.1618 80.3999 12.9727 80.7156 13.8186C81.0299 14.6645 81.3282 15.5031 81.6106 16.3345C81.893 17.1658 82.1522 17.9665 82.3883 18.7322C82.6243 19.4979 82.8213 20.1921 82.9777 20.8119H80.342C80.1972 20.2708 80.0466 19.7414 79.8902 19.2266C79.7323 18.7117 79.5817 18.2027 79.4369 17.701H73.6138C73.4559 18.2027 73.3024 18.7117 73.1518 19.2266C73.0012 19.7414 72.8535 20.2708 72.7087 20.8119H70.073C70.2308 20.1906 70.4278 19.4979 70.6639 18.7322C70.8999 17.9665 71.1591 17.1672 71.4415 16.3345C71.7239 15.5017 72.0222 14.6631 72.3365 13.8186C72.6508 12.9742 72.9694 12.1618 73.2908 11.3816C73.6123 10.6027 73.9237 9.87934 74.2249 9.21283C74.5261 8.54632 74.8085 7.9746 75.0707 7.49915H77.9815ZM76.5246 9.83559C75.6847 11.7374 74.9244 13.7122 74.2423 15.7598H78.807C78.0988 13.7122 77.3385 11.7389 76.5246 9.83559Z" fill="#8F90A6"/>
<path d="M84.2953 9.36062C84.2953 9.21477 84.278 9.11997 84.2461 9.0733C84.2128 9.02663 84.1317 8.97704 83.9999 8.92454L83.2917 8.64743L83.5075 7.49817H86.7341C86.8514 7.49817 86.9107 7.5638 86.9107 7.69652V15.403C86.9107 16.6704 87.1801 17.5819 87.7174 18.1376C88.2547 18.6918 89.1265 18.9689 90.3342 18.9689C91.5536 18.9689 92.4297 18.6918 92.9612 18.1376C93.4927 17.5834 93.7577 16.6719 93.7577 15.403V7.49817H96.3746V15.6014C96.3746 16.5654 96.2602 17.3909 96.0299 18.0778C95.8011 18.7647 95.4434 19.3292 94.9583 19.7711C94.4731 20.213 93.8461 20.5368 93.08 20.7424C92.3124 20.9466 91.3986 21.0487 90.3357 21.0487C89.2727 21.0487 88.3589 20.9466 87.5914 20.7424C86.8239 20.5382 86.1982 20.2144 85.7131 19.7711C85.228 19.3292 84.8703 18.7647 84.6414 18.0778C84.4112 17.3909 84.2968 16.5654 84.2968 15.6014V9.36062H84.2953Z" fill="#8F90A6"/>
<path d="M99.4042 9.36062C99.4042 9.21477 99.3883 9.11997 99.355 9.0733C99.3217 9.02663 99.2406 8.97704 99.1088 8.92454L98.4006 8.64743L98.6164 7.49817H101.843C101.96 7.49817 102.02 7.5638 102.02 7.69652V18.791H108.059V20.8124H99.4028V9.36062H99.4042Z" fill="#8F90A6"/>
<path d="M110.893 9.51959H106.603V7.49817H117.798V9.51959H113.51V20.8124H110.893V9.51959Z" fill="#8F90A6"/>
</svg>
