<svg width="149" height="26" viewBox="0 0 149 26" fill="none" xmlns="http://www.w3.org/2000/svg">
<path fill-rule="evenodd" clip-rule="evenodd" d="M17.7291 23.9518C15.7656 22.7224 14.3196 18.4802 14.3196 13.4387C14.3196 13.2536 14.3196 13.0716 14.3247 12.8886C8.86532 12.0304 4.92101 9.68047 4.81932 6.90043L4.80305 6.93297C3.46794 8.59245 2.70531 10.5122 2.70531 12.5571C2.70531 18.5748 9.31477 23.5064 17.6905 23.9457L17.7261 23.9528L17.7291 23.9518ZM0.18457 12.9994C0.18457 6.26593 8.56434 0.806519 18.9015 0.806519C29.2387 0.806519 37.6195 6.26593 37.6195 12.9994C37.6195 19.7329 29.2387 25.1934 18.9015 25.1934C8.56434 25.1934 0.18457 19.7329 0.18457 12.9994ZM18.9015 2.56565C20.8976 2.56565 22.5947 5.59278 23.2241 9.81673V9.81063C27.1064 9.20052 29.8244 7.81152 29.8244 6.18966C29.8244 4.01261 24.9334 2.24941 18.8995 2.24941C12.8656 2.24941 7.97457 4.01261 7.97457 6.18966C7.97457 7.81152 10.6926 9.20561 14.5759 9.81063V9.81673C15.2053 5.59278 16.9024 2.56565 18.8975 2.56565H18.9015ZM20.1095 23.9447C28.4893 23.5095 35.0957 18.5778 35.0957 12.5561C35.0957 10.5112 34.3331 8.59042 32.9969 6.93195L32.9807 6.89942C32.879 9.67946 28.9357 12.0294 23.4763 12.8876C23.4763 13.0706 23.4824 13.2526 23.4824 13.4377C23.4824 18.4792 22.0354 22.7214 20.0739 23.9508L20.1075 23.9437L20.1095 23.9447ZM18.9015 10.1309C19.7963 10.1309 20.6647 10.0923 21.4965 10.0191C21.0826 7.31226 20.0729 5.4006 18.9025 5.4006C17.7322 5.4006 16.7235 7.31226 16.3086 10.0191C17.1404 10.0923 18.0098 10.1309 18.9036 10.1309H18.9015ZM18.9015 20.158C20.4044 20.158 21.6297 17.0312 21.6948 13.1093H21.7029C20.7979 13.1926 19.8604 13.2364 18.9015 13.2364C17.9426 13.2364 17.0061 13.1926 16.1001 13.1093H16.1083C16.1733 17.0312 17.3996 20.158 18.9015 20.158Z" fill="#8F90A6"/>
<path fill-rule="evenodd" clip-rule="evenodd" d="M95.6934 12.999C95.6932 11.1555 96.2396 9.35337 97.2637 7.82049C98.2877 6.28761 99.7434 5.09284 101.446 4.38728C103.15 3.68172 105.024 3.49706 106.832 3.85665C108.64 4.21625 110.301 5.10395 111.604 6.40748C112.908 7.71102 113.795 9.37184 114.155 11.1799C114.515 12.988 114.33 14.8621 113.624 16.5652C112.919 18.2683 111.724 19.7239 110.191 20.748C108.658 21.772 106.856 22.3185 105.013 22.3183C102.541 22.3183 100.171 21.3365 98.4229 19.5887C96.6752 17.841 95.6934 15.4706 95.6934 12.999ZM105.013 18.8966C107.887 18.8966 110.217 16.2529 110.217 12.999C110.217 9.7451 107.887 7.10132 105.013 7.10132C102.138 7.10132 99.8105 9.7451 99.8105 12.999C99.8105 16.2529 102.139 18.8966 105.013 18.8966Z" fill="#8F90A6"/>
<path fill-rule="evenodd" clip-rule="evenodd" d="M124.907 7.56179V21.8952H120.981V7.56179H120.994H115.502V4.32214H130.385V7.56179H124.92H124.907Z" fill="#8F90A6"/>
<path fill-rule="evenodd" clip-rule="evenodd" d="M135.135 17.9408L133.629 21.8912H129.043L136.294 4.31824H141.18L148.431 21.8912H143.845L142.338 17.9408H135.135ZM138.734 14.9747H141.203L138.75 8.54218H138.716L136.263 14.9737H138.734V14.9747Z" fill="#8F90A6"/>
<path fill-rule="evenodd" clip-rule="evenodd" d="M52.5254 7.56179V21.8952H48.5983V7.56179H48.6126H43.1206V4.32214H58.0031V7.56179H52.5396H52.5254Z" fill="#8F90A6"/>
<path fill-rule="evenodd" clip-rule="evenodd" d="M59.0049 12.999C59.0047 11.1555 59.5511 9.35345 60.5751 7.82059C61.5992 6.28774 63.0547 5.09297 64.7578 4.38738C66.4608 3.68179 68.3349 3.49707 70.1429 3.85658C71.9509 4.21609 73.6118 5.10369 74.9153 6.40712C76.2189 7.71056 77.1067 9.37128 77.4664 11.1793C77.8261 12.9873 77.6416 14.8613 76.9362 16.5645C76.2308 18.2676 75.0362 19.7233 73.5034 20.7475C71.9707 21.7717 70.1687 22.3183 68.3252 22.3183C67.1013 22.3184 65.8894 22.0775 64.7586 21.6092C63.6278 21.1409 62.6003 20.4545 61.7348 19.5891C60.8693 18.7237 60.1828 17.6963 59.7144 16.5656C59.246 15.4348 59.0049 14.2229 59.0049 12.999ZM68.3252 18.8966C71.1988 18.8966 73.5294 16.2529 73.5294 12.999C73.5294 9.7451 71.1988 7.10132 68.3252 7.10132C65.4516 7.10132 63.121 9.7451 63.121 12.999C63.121 16.2529 65.4516 18.8966 68.3252 18.8966Z" fill="#8F90A6"/>
<path fill-rule="evenodd" clip-rule="evenodd" d="M86.671 21.8952H88.661V15.305V15.2227L95.5125 4.32214H90.9265L86.671 11.7085L82.4146 4.32214H77.8286L84.6801 15.2227V15.305V21.8952H86.671Z" fill="#8F90A6"/>
</svg>
